<?xml version="1.0" standalone="no"?>
<!DOCTYPE svg PUBLIC "-//W3C//DTD SVG 20010904//EN"
 "http://www.w3.org/TR/2001/REC-SVG-20010904/DTD/svg10.dtd">
<svg version="1.0" xmlns="http://www.w3.org/2000/svg"
 width="200.000000pt" height="200.000000pt" viewBox="0 0 200.000000 200.000000"
 preserveAspectRatio="xMidYMid meet">

<g transform="translate(0.000000,200.000000) scale(0.100000,-0.100000)"
fill="#ffffff" stroke="none">
<path fill="#ffffff" d="M845 1384 c-92 -61 -155 -142 -155 -200 0 -67 70 -123 179 -144 84
-16 121 -13 121 8 0 41 -26 59 -100 66 -83 8 -118 32 -126 86 -7 46 24 92 94
141 38 27 48 38 37 43 -11 4 -14 2 -9 -6 4 -7 3 -8 -4 -4 -17 10 -15 15 11 26
13 5 16 9 7 9 -9 1 -33 -11 -55 -25z"/>
<path fill="#ffffff" d="M786 817 c-11 -8 -17 -23 -14 -38 2 -19 10 -25 35 -27 28 -3 33 0 39
24 5 20 2 31 -11 41 -23 16 -27 16 -49 0z"/>
<path fill="#ffffff" d="M273 705 c-23 -10 -33 -21 -33 -36 0 -16 4 -19 18 -13 42 18 90 16
111 -5 31 -31 28 -61 -6 -61 -88 0 -148 -46 -148 -112 0 -58 37 -88 110 -88
30 0 73 7 95 16 l40 16 0 103 c0 56 -5 116 -11 134 -20 56 -103 78 -176 46z
m115 -207 c-3 -47 -6 -53 -27 -56 -59 -9 -94 25 -71 68 12 23 43 38 78 39 22
1 23 -2 20 -51z"/>
<path fill="#ffffff" d="M523 708 l-33 -11 0 -208 c0 -115 2 -209 5 -209 4 0 19 7 35 15 26
14 30 21 30 58 l0 42 55 -3 c49 -4 58 -1 84 26 73 72 62 245 -19 287 -33 17
-109 18 -157 3z m113 -46 c22 -14 34 -52 34 -104 0 -84 -32 -127 -83 -114
l-27 6 0 110 0 110 33 0 c17 0 37 -4 43 -8z"/>
<path fill="#ffffff" d="M925 705 c-22 -8 -41 -15 -42 -15 -2 0 -3 -68 -3 -151 l0 -150 33 3
32 3 5 135 5 135 28 3 c52 6 57 -8 57 -150 l0 -129 33 3 32 3 3 132 3 133 26
6 c51 13 58 -1 63 -142 l5 -129 30 0 30 0 3 127 c4 177 -18 213 -116 193 -40
-8 -60 -8 -137 0 -32 3 -65 0 -90 -10z"/>
<path fill="#ffffff" d="M1368 705 c-61 -34 -86 -158 -49 -242 23 -50 63 -73 123 -73 67 0 88
9 88 36 0 23 -3 24 -40 18 -60 -10 -89 2 -106 41 -8 19 -14 39 -14 45 0 6 35
10 91 10 l91 0 -7 47 c-4 26 -13 60 -21 75 -27 52 -101 72 -156 43z m90 -47
c5 -7 13 -28 17 -45 l7 -33 -56 0 c-59 0 -62 3 -45 47 16 42 55 58 77 31z"/>
<path fill="#ffffff" d="M1639 697 c-67 -44 -89 -147 -50 -234 23 -49 62 -73 120 -73 54 0 71
8 71 35 0 21 -5 24 -40 23 -49 0 -76 21 -91 73 -14 44 -7 76 22 112 17 22 29
27 65 27 40 0 44 2 44 24 0 42 -86 50 -141 13z"/>
<path fill="#ffffff" d="M802 695 l-33 -14 3 -143 3 -143 35 0 35 0 3 158 c1 86 -1 157 -5
157 -5 -1 -23 -7 -41 -15z"/>
</g>
</svg>
