<?xml version="1.0" encoding="UTF-8" standalone="no"?>
<!-- Created with Inkscape (http://www.inkscape.org/) -->

<svg
   xmlns:dc="http://purl.org/dc/elements/1.1/"
   xmlns:cc="http://creativecommons.org/ns#"
   xmlns:rdf="http://www.w3.org/1999/02/22-rdf-syntax-ns#"
   xmlns:svg="http://www.w3.org/2000/svg"
   xmlns="http://www.w3.org/2000/svg"
   xmlns:sodipodi="http://sodipodi.sourceforge.net/DTD/sodipodi-0.dtd"
   xmlns:inkscape="http://www.inkscape.org/namespaces/inkscape"
   version="1.1"
   id="svg2"
   xml:space="preserve"
   width="4096"
   height="4096"
   viewBox="0 0 4096.0001 4096.0001"
   sodipodi:docname="b3-logo.svg"
   inkscape:export-filename="C:\Users\suitedoalex\sites\b3-logo.png"
   inkscape:export-xdpi="118.24954"
   inkscape:export-ydpi="118.24954"
   inkscape:version="0.92.2 (5c3e80d, 2017-08-06)"><metadata
     id="metadata8"><rdf:RDF><cc:Work
         rdf:about=""><dc:format>image/svg+xml</dc:format><dc:type
           rdf:resource="http://purl.org/dc/dcmitype/StillImage" /><dc:title></dc:title></cc:Work></rdf:RDF></metadata><defs
     id="defs6"><clipPath
       clipPathUnits="userSpaceOnUse"
       id="clipPath18"><path
         d="M 0,0 H 768 V 1024 H 0 Z"
         id="path16"
         inkscape:connector-curvature="0" /></clipPath><clipPath
       clipPathUnits="userSpaceOnUse"
       id="clipPath32"><path
         d="M 0,0 H 768 V 1024 H 0 Z"
         id="path30"
         inkscape:connector-curvature="0" /></clipPath><clipPath
       clipPathUnits="userSpaceOnUse"
       id="clipPath56"><path
         d="M 0,0 H 768 V 1024 H 0 Z"
         id="path54"
         inkscape:connector-curvature="0" /></clipPath><clipPath
       clipPathUnits="userSpaceOnUse"
       id="clipPath76"><path
         d="M 0,0 H 768 V 1024 H 0 Z"
         id="path74"
         inkscape:connector-curvature="0" /></clipPath><clipPath
       clipPathUnits="userSpaceOnUse"
       id="clipPath108"><path
         d="M 0,0 H 768 V 1024 H 0 Z"
         id="path106"
         inkscape:connector-curvature="0" /></clipPath><clipPath
       clipPathUnits="userSpaceOnUse"
       id="clipPath124"><path
         d="M 0,0 H 768 V 1024 H 0 Z"
         id="path122"
         inkscape:connector-curvature="0" /></clipPath><clipPath
       clipPathUnits="userSpaceOnUse"
       id="clipPath144"><path
         d="M 0,0 H 768 V 1024 H 0 Z"
         id="path142"
         inkscape:connector-curvature="0" /></clipPath><clipPath
       clipPathUnits="userSpaceOnUse"
       id="clipPath168"><path
         d="M 0,0 H 768 V 1024 H 0 Z"
         id="path166"
         inkscape:connector-curvature="0" /></clipPath><clipPath
       clipPathUnits="userSpaceOnUse"
       id="clipPath192"><path
         d="M 0,0 H 768 V 1024 H 0 Z"
         id="path190"
         inkscape:connector-curvature="0" /></clipPath><clipPath
       clipPathUnits="userSpaceOnUse"
       id="clipPath144-9"><path
         d="M 0,0 H 768 V 1024 H 0 Z"
         id="path142-4"
         inkscape:connector-curvature="0" /></clipPath><clipPath
       clipPathUnits="userSpaceOnUse"
       id="clipPath124-0"><path
         d="M 0,0 H 768 V 1024 H 0 Z"
         id="path122-1"
         inkscape:connector-curvature="0" /></clipPath><clipPath
       clipPathUnits="userSpaceOnUse"
       id="clipPath108-5"><path
         d="M 0,0 H 768 V 1024 H 0 Z"
         id="path106-5"
         inkscape:connector-curvature="0" /></clipPath><clipPath
       clipPathUnits="userSpaceOnUse"
       id="clipPath76-3"><path
         d="M 0,0 H 768 V 1024 H 0 Z"
         id="path74-1"
         inkscape:connector-curvature="0" /></clipPath><clipPath
       clipPathUnits="userSpaceOnUse"
       id="clipPath56-0"><path
         d="M 0,0 H 768 V 1024 H 0 Z"
         id="path54-9"
         inkscape:connector-curvature="0" /></clipPath><clipPath
       clipPathUnits="userSpaceOnUse"
       id="clipPath32-4"><path
         d="M 0,0 H 768 V 1024 H 0 Z"
         id="path30-3"
         inkscape:connector-curvature="0" /></clipPath></defs><sodipodi:namedview
     pagecolor="#ffffff"
     bordercolor="#666666"
     borderopacity="1"
     objecttolerance="10"
     gridtolerance="10"
     guidetolerance="10"
     inkscape:pageopacity="0"
     inkscape:pageshadow="2"
     inkscape:window-width="1600"
     inkscape:window-height="837"
     id="namedview4"
     showgrid="false"
     fit-margin-top="0"
     fit-margin-left="0"
     fit-margin-right="0"
     fit-margin-bottom="0"
     inkscape:zoom="0.06111226"
     inkscape:cx="-1622.8131"
     inkscape:cy="141.772"
     inkscape:window-x="-8"
     inkscape:window-y="-8"
     inkscape:window-maximized="1"
     inkscape:current-layer="g28" /><g
     id="g10"
     inkscape:groupmode="layer"
     inkscape:label="b3-logo"
     transform="matrix(1.3333333,0,0,-1.3333333,-545.147,5304.9798)"><g
       id="g26"
       style="fill:#ffffff;fill-opacity:1"
       transform="matrix(19.811275,0,0,19.811275,-7402.1728,-16076.61)"
       inkscape:export-filename="C:\Users\suitedoalex\sites\b3-logo-6.png"
       inkscape:export-xdpi="5.7739034"
       inkscape:export-ydpi="5.7739034"><g
         transform="translate(60.122862,8.2478875)"
         id="g28"
         clip-path="url(#clipPath32-4)"
         style="fill:#ffffff;fill-opacity:1"><g
           id="g34"
           transform="translate(385.287,925.1557)"
           style="fill:#ffffff;fill-opacity:1"
           inkscape:export-filename="C:\Users\suitedoalex\sites\b3-logo-01.png"
           inkscape:export-xdpi="227.66692"
           inkscape:export-ydpi="227.66692"><path
             d="m 0,0 c 1.21,1.583 1.937,3.552 1.937,5.693 0,5.185 -4.22,9.404 -9.404,9.404 h -17.19 V 2.133 -3.71 -16.674 h 8.767 9.936 c 5.186,0 9.404,4.218 9.404,9.403 C 3.45,-4.344 2.105,-1.726 0,0 m -16.854,9.252 h 7.844 c 1.964,0 3.56,-1.596 3.56,-3.559 0,-1.964 -1.596,-3.56 -3.56,-3.56 h -7.844 z m 8.548,-20.083 h -8.548 v 7.121 h 8.548 c 1.963,0 3.559,-1.598 3.559,-3.561 0,-1.963 -1.596,-3.56 -3.559,-3.56"
             style="fill:#ffffff;fill-opacity:1;fill-rule:nonzero;stroke:none"
             id="path36"
             inkscape:connector-curvature="0" /></g><g
           id="g38"
           transform="translate(414.1227,945.9205)"
           style="fill:#ffffff;fill-opacity:1"
           inkscape:export-filename="C:\Users\suitedoalex\sites\b3-logo-01.png"
           inkscape:export-xdpi="227.66692"
           inkscape:export-ydpi="227.66692"><path
             d="m 0,0 c 0,-1.154 -0.441,-2.101 -1.324,-2.841 -0.884,-0.738 -2.018,-1.109 -3.4,-1.109 -1.299,0 -2.396,0.343 -3.29,1.029 -0.891,0.682 -1.422,1.614 -1.593,2.795 h 3.502 c 0.265,-0.682 0.733,-1.028 1.418,-1.028 0.42,0 0.764,0.111 1.037,0.333 0.269,0.223 0.405,0.515 0.405,0.875 0,0.349 -0.132,0.628 -0.396,0.839 -0.265,0.211 -0.633,0.316 -1.102,0.316 H -5.93 V 3.66 h 1.098 c 0.445,0 0.8,0.099 1.064,0.298 0.264,0.198 0.396,0.46 0.396,0.784 0,0.361 -0.122,0.65 -0.369,0.866 -0.246,0.217 -0.58,0.325 -1.002,0.325 -0.42,0 -0.765,-0.144 -1.036,-0.434 C -5.941,5.326 -6.058,5.095 -6.142,4.817 h -3.342 c 0.193,1.212 0.713,2.159 1.56,2.838 0.847,0.679 1.901,1.018 3.164,1.018 1.334,0 2.432,-0.36 3.29,-1.082 C -0.611,6.87 -0.18,5.951 -0.18,4.833 -0.18,3.811 -0.6,3.029 -1.441,2.489 -0.48,1.947 0,1.119 0,0"
             style="fill:#ffffff;fill-opacity:1;fill-rule:nonzero;stroke:none"
             id="path40"
             inkscape:connector-curvature="0" /></g></g><g
         id="g42"
         transform="translate(420.82826,954.58849)"
         style="fill:#ffffff;fill-opacity:1"
         inkscape:export-filename="C:\Users\suitedoalex\sites\b3-logo-01.png"
         inkscape:export-xdpi="227.66692"
         inkscape:export-ydpi="227.66692"><path
           d="M 0,0 V 3.891 H -11.968 V -47.853 H 0 v 3.904 H -8.089 V 0 Z"
           style="fill:#ffffff;fill-opacity:1;fill-rule:nonzero;stroke:none"
           id="path44"
           inkscape:connector-curvature="0" /></g><g
         id="g46"
         transform="translate(448.63506,910.63989)"
         style="fill:#ffffff;fill-opacity:1"
         inkscape:export-filename="C:\Users\suitedoalex\sites\b3-logo-01.png"
         inkscape:export-xdpi="227.66692"
         inkscape:export-ydpi="227.66692"><path
           d="M 0,0 V -3.905 H 11.968 V 47.84 H 0 V 43.949 H 8.088 V 0 Z"
           style="fill:#ffffff;fill-opacity:1;fill-rule:nonzero;stroke:none"
           id="path48"
           inkscape:connector-curvature="0" /></g><g
         transform="translate(60.122862,8.2478875)"
         id="g50"
         style="fill:#ffffff;fill-opacity:1"><g
           id="g52"
           clip-path="url(#clipPath56-0)"
           style="fill:#ffffff;fill-opacity:1"><g
             id="g58"
             transform="translate(429.2639,912.8413)"
             style="fill:#ffffff;fill-opacity:1"><path
               d="M 0,0 C 0.556,-0.059 1.002,-0.273 1.341,-0.641 1.678,-1.009 1.847,-1.479 1.847,-2.053 1.847,-2.736 1.613,-3.291 1.142,-3.719 0.672,-4.148 0.035,-4.36 -0.771,-4.36 h -4.065 v 8.595 h 3.823 c 0.805,0 1.431,-0.201 1.885,-0.603 C 1.327,3.23 1.553,2.695 1.553,2.028 1.553,1.497 1.403,1.048 1.103,0.681 0.803,0.313 0.437,0.096 0,0.027 Z m -4.182,0.245 h 3.31 c 0.539,0 0.974,0.161 1.309,0.487 0.334,0.326 0.499,0.749 0.499,1.269 0,0.505 -0.177,0.91 -0.532,1.213 C 0.049,3.518 -0.441,3.67 -1.065,3.67 h -3.117 z m 3.361,-4.042 c 0.606,0 1.095,0.165 1.462,0.495 0.369,0.329 0.552,0.758 0.552,1.289 0,0.529 -0.187,0.948 -0.557,1.258 -0.372,0.306 -0.863,0.46 -1.469,0.46 h -3.349 v -3.502 z"
               style="fill:#ffffff;fill-opacity:1;fill-rule:nonzero;stroke:none"
               id="path60"
               inkscape:connector-curvature="0" /></g></g></g><g
         id="g62"
         transform="translate(499.72626,916.72919)"
         style="fill:#ffffff;fill-opacity:1"><path
           d="M 0,0 -1.053,2.347 H -5.952 L -7.017,0 H -7.71 l 3.912,8.595 H -3.22 L 0.692,0 Z M -3.501,7.774 -5.684,2.937 h 4.363 z"
           style="fill:#ffffff;fill-opacity:1;fill-rule:nonzero;stroke:none"
           id="path64"
           inkscape:connector-curvature="0" /></g><g
         id="g66"
         transform="translate(507.80736,916.72919)"
         style="fill:#ffffff;fill-opacity:1"><path
           d="m 0,0 h -5.837 v 8.595 h 0.655 V 0.589 H 0 Z"
           style="fill:#ffffff;fill-opacity:1;fill-rule:nonzero;stroke:none"
           id="path68"
           inkscape:connector-curvature="0" /></g><g
         transform="translate(60.122862,8.2478875)"
         id="g70"
         style="fill:#4d4d4d"><g
           id="g72"
           clip-path="url(#clipPath76-3)"
           style="fill:#4d4d4d"><g
             id="g78"
             transform="translate(454.4394,909.532)"
             style="fill:#ffffff;fill-opacity:1"><path
               d="M 0,0 C 0.602,0.394 1.032,0.928 1.29,1.605 L 1.919,1.45 C 1.628,0.637 1.123,-0.006 0.403,-0.482 c -0.718,-0.474 -1.555,-0.712 -2.514,-0.712 -1.239,0 -2.286,0.431 -3.142,1.291 -0.856,0.859 -1.284,1.909 -1.284,3.15 0,1.238 0.428,2.289 1.284,3.149 0.856,0.859 1.903,1.288 3.142,1.288 0.959,0 1.796,-0.235 2.514,-0.705 C 1.123,6.508 1.628,5.875 1.919,5.081 L 1.302,4.888 C 1.055,5.563 0.627,6.099 0.021,6.491 c -0.609,0.394 -1.318,0.59 -2.132,0.59 -1.06,0 -1.957,-0.37 -2.686,-1.109 -0.733,-0.74 -1.098,-1.649 -1.098,-2.725 0,-1.079 0.365,-1.989 1.098,-2.728 0.729,-0.739 1.626,-1.11 2.686,-1.11 0.804,0 1.508,0.197 2.111,0.591"
               style="fill:#ffffff;fill-opacity:1;fill-rule:nonzero;stroke:none"
               id="path80"
               inkscape:connector-curvature="0" /></g><g
             id="g82"
             transform="translate(464.7343,908.4813)"
             style="fill:#ffffff;fill-opacity:1"><path
               d="M 0,0 -1.053,2.347 H -5.952 L -7.018,0 h -0.693 l 3.913,8.595 h 0.577 L 0.692,0 Z M -3.502,7.773 -5.684,2.937 h 4.363 z m -1.16,2.649 c -0.099,-0.115 -0.15,-0.271 -0.15,-0.467 h -0.474 c 0,0.367 0.095,0.647 0.283,0.84 0.188,0.192 0.424,0.288 0.706,0.288 0.256,0 0.537,-0.114 0.84,-0.339 0.303,-0.228 0.549,-0.342 0.737,-0.342 0.162,0 0.288,0.062 0.379,0.181 0.09,0.12 0.134,0.282 0.134,0.487 h 0.488 c 0,-0.376 -0.093,-0.66 -0.276,-0.853 -0.183,-0.192 -0.416,-0.289 -0.699,-0.289 -0.257,0 -0.537,0.112 -0.841,0.334 -0.303,0.223 -0.545,0.334 -0.724,0.334 -0.171,0 -0.306,-0.058 -0.403,-0.174"
               style="fill:#ffffff;fill-opacity:1;fill-rule:nonzero;stroke:none"
               id="path84"
               inkscape:connector-curvature="0" /></g><g
             id="g86"
             transform="translate(473.3553,915.9279)"
             style="fill:#ffffff;fill-opacity:1"><path
               d="M 0,0 C 0.847,-0.86 1.269,-1.911 1.269,-3.149 1.269,-4.399 0.847,-5.45 0,-6.306 -0.846,-7.161 -1.887,-7.59 -3.119,-7.59 c -1.239,0 -2.283,0.429 -3.129,1.284 -0.847,0.856 -1.271,1.907 -1.271,3.157 0,1.238 0.426,2.289 1.279,3.149 0.849,0.859 1.891,1.289 3.121,1.289 C -1.887,1.289 -0.846,0.859 0,0 m -0.456,-5.884 c 0.723,0.738 1.085,1.648 1.085,2.735 0,1.076 -0.362,1.986 -1.085,2.725 -0.722,0.739 -1.61,1.109 -2.663,1.109 -1.06,0 -1.951,-0.37 -2.674,-1.109 -0.724,-0.739 -1.084,-1.649 -1.084,-2.725 0,-1.087 0.36,-1.997 1.084,-2.735 0.723,-0.734 1.614,-1.102 2.674,-1.102 1.053,0 1.941,0.368 2.663,1.102"
               style="fill:#ffffff;fill-opacity:1;fill-rule:nonzero;stroke:none"
               id="path88"
               inkscape:connector-curvature="0" /></g><g
             id="g90"
             transform="translate(429.4696,924.4415)"
             style="fill:#ffffff;fill-opacity:1"><path
               d="m 0,0 c 0.495,-0.059 0.909,-0.271 1.238,-0.635 0.329,-0.364 0.495,-0.831 0.495,-1.405 0,-0.701 -0.234,-1.265 -0.7,-1.693 -0.467,-0.427 -1.122,-0.641 -1.969,-0.641 h -4.119 v 8.595 h 3.952 c 0.794,0 1.42,-0.206 1.874,-0.617 C 1.223,3.195 1.45,2.647 1.45,1.963 1.45,1.441 1.307,1.003 1.02,0.647 0.734,0.293 0.393,0.09 0,0.039 Z m -4.041,0.372 h 2.925 c 0.478,0 0.865,0.141 1.161,0.423 0.296,0.283 0.443,0.655 0.443,1.117 0,0.435 -0.152,0.784 -0.456,1.045 -0.303,0.261 -0.712,0.391 -1.224,0.391 h -2.849 z m 3.015,-3.875 c 0.53,0 0.952,0.142 1.263,0.425 0.312,0.281 0.469,0.657 0.469,1.127 0,0.454 -0.16,0.818 -0.482,1.09 -0.32,0.275 -0.733,0.413 -1.238,0.413 h -3.027 v -3.055 z"
               style="fill:#ffffff;fill-opacity:1;fill-rule:nonzero;stroke:none"
               id="path92"
               inkscape:connector-curvature="0" /></g><g
             id="g94"
             transform="translate(439.7767,927.5327)"
             style="fill:#ffffff;fill-opacity:1"><path
               d="M 0,0 C 0.86,-0.863 1.292,-1.92 1.292,-3.169 1.292,-4.417 0.86,-5.473 0,-6.337 c -0.858,-0.864 -1.909,-1.296 -3.148,-1.296 -1.249,0 -2.304,0.432 -3.164,1.296 -0.859,0.864 -1.289,1.92 -1.289,3.168 0,1.249 0.43,2.306 1.289,3.169 0.86,0.864 1.915,1.296 3.164,1.296 C -1.909,1.296 -0.858,0.864 0,0 m -0.724,-5.664 c 0.659,0.671 0.989,1.504 0.989,2.495 0,0.985 -0.33,1.816 -0.989,2.495 -0.658,0.681 -1.466,1.021 -2.424,1.021 -0.967,0 -1.779,-0.34 -2.438,-1.021 -0.659,-0.679 -0.988,-1.51 -0.988,-2.495 0,-0.991 0.329,-1.824 0.988,-2.495 0.659,-0.671 1.471,-1.006 2.438,-1.006 0.958,0 1.766,0.335 2.424,1.006"
               style="fill:#ffffff;fill-opacity:1;fill-rule:nonzero;stroke:none"
               id="path96"
               inkscape:connector-curvature="0" /></g></g></g><g
         id="g98"
         transform="translate(508.57796,928.31499)"
         style="fill:#ffffff;fill-opacity:1"><path
           d="m 0,0 h -5.939 v 8.595 h 1.014 V 0.923 H 0 Z"
           style="fill:#ffffff;fill-opacity:1;fill-rule:nonzero;stroke:none"
           id="path100"
           inkscape:connector-curvature="0" /></g><g
         transform="translate(60.122862,8.2478875)"
         id="g102"
         style="fill:#ffffff;fill-opacity:1"><g
           id="g104"
           clip-path="url(#clipPath108-5)"
           style="fill:#ffffff;fill-opacity:1"><g
             id="g110"
             transform="translate(454.8637,928.1879)"
             style="fill:#ffffff;fill-opacity:1"><path
               d="M 0,0 C 0.577,-0.428 0.94,-1.001 1.084,-1.719 L 0.07,-1.95 c -0.095,0.522 -0.342,0.936 -0.744,1.244 -0.402,0.308 -0.899,0.462 -1.488,0.462 -0.581,0 -1.052,-0.144 -1.411,-0.43 -0.359,-0.286 -0.539,-0.66 -0.539,-1.123 0,-0.367 0.109,-0.652 0.327,-0.852 0.219,-0.202 0.541,-0.345 0.969,-0.431 l 1.874,-0.423 c 1.445,-0.308 2.168,-1.053 2.168,-2.232 0,-0.778 -0.292,-1.398 -0.873,-1.859 -0.582,-0.463 -1.356,-0.694 -2.322,-0.694 -0.933,0 -1.721,0.23 -2.367,0.686 -0.646,0.458 -1.019,1.085 -1.124,1.88 l 1.066,0.218 c 0.094,-0.6 0.367,-1.062 0.821,-1.392 0.454,-0.329 1.017,-0.494 1.693,-0.494 0.65,0 1.161,0.147 1.534,0.443 0.372,0.295 0.558,0.683 0.558,1.16 0,0.394 -0.11,0.69 -0.328,0.885 -0.218,0.197 -0.574,0.351 -1.071,0.464 l -1.937,0.422 c -1.378,0.309 -2.066,1.039 -2.066,2.194 0,0.735 0.281,1.329 0.841,1.783 0.56,0.453 1.297,0.68 2.213,0.68 C -1.29,0.641 -0.577,0.427 0,0"
               style="fill:#ffffff;fill-opacity:1;fill-rule:nonzero;stroke:none"
               id="path112"
               inkscape:connector-curvature="0" /></g></g></g><g
         id="g114"
         transform="translate(524.70476,928.31499)"
         style="fill:#ffffff;fill-opacity:1"><path
           d="M 0,0 -0.962,2.18 H -5.491 L -6.455,0 h -1.088 l 3.848,8.595 h 0.936 L 1.09,0 Z M -3.221,7.338 -5.095,3.092 h 3.735 z"
           style="fill:#ffffff;fill-opacity:1;fill-rule:nonzero;stroke:none"
           id="path116"
           inkscape:connector-curvature="0" /></g><g
         transform="translate(60.122862,8.2478875)"
         id="g118"
         style="fill:#ffffff;fill-opacity:1"><g
           id="g120"
           clip-path="url(#clipPath124-0)"
           style="fill:#ffffff;fill-opacity:1"><g
             id="g126"
             transform="translate(429.6948,936.0298)"
             style="fill:#ffffff;fill-opacity:1"><path
               d="M 0,0 C 0.445,-0.051 0.826,-0.256 1.143,-0.615 1.459,-0.974 1.618,-1.441 1.618,-2.013 1.618,-2.732 1.385,-3.305 0.92,-3.732 0.453,-4.16 -0.221,-4.375 -1.101,-4.375 h -4.183 v 8.597 h 4.092 C -0.414,4.222 0.207,4.01 0.669,3.587 1.13,3.163 1.36,2.6 1.36,1.899 1.36,1.394 1.222,0.976 0.944,0.642 0.667,0.308 0.352,0.112 0,0.052 Z m -3.911,0.501 h 2.566 c 0.409,0 0.741,0.122 0.994,0.366 0.251,0.243 0.377,0.562 0.377,0.956 0,0.359 -0.126,0.652 -0.377,0.878 -0.253,0.227 -0.581,0.34 -0.982,0.34 h -2.578 z m 2.669,-3.695 c 0.452,0 0.807,0.12 1.064,0.359 0.256,0.239 0.385,0.557 0.385,0.949 0,0.386 -0.13,0.695 -0.391,0.931 -0.262,0.235 -0.601,0.352 -1.022,0.352 h -2.705 v -2.591 z"
               style="fill:#ffffff;fill-opacity:1;fill-rule:nonzero;stroke:none"
               id="path128"
               inkscape:connector-curvature="0" /></g><g
             id="g130"
             transform="translate(438.6749,931.6551)"
             style="fill:#ffffff;fill-opacity:1"><path
               d="M 0,0 -3.065,3.425 H -4.309 V 0 h -1.373 v 8.596 h 4.041 c 0.88,0 1.592,-0.238 2.136,-0.712 C 1.039,7.41 1.311,6.783 1.311,6.005 1.311,5.269 1.064,4.668 0.571,4.202 0.08,3.736 -0.577,3.481 -1.397,3.439 L 1.707,0 Z m -1.641,4.67 c 0.471,0 0.85,0.122 1.142,0.366 0.291,0.244 0.436,0.567 0.436,0.969 0,0.401 -0.145,0.726 -0.436,0.974 -0.292,0.249 -0.671,0.373 -1.142,0.373 H -4.309 V 4.67 Z"
               style="fill:#ffffff;fill-opacity:1;fill-rule:nonzero;stroke:none"
               id="path132"
               inkscape:connector-curvature="0" /></g></g></g><g
         id="g134"
         transform="translate(508.38096,939.90299)"
         style="fill:#ffffff;fill-opacity:1"><path
           d="M 0,0 -0.847,2.003 H -5.028 L -5.875,0 h -1.488 l 3.785,8.596 h 1.282 L 1.488,0 Z M -2.936,6.916 -4.49,3.259 h 3.106 z"
           style="fill:#ffffff;fill-opacity:1;fill-rule:nonzero;stroke:none"
           id="path136"
           inkscape:connector-curvature="0" /></g><g
         transform="translate(60.122862,8.2478875)"
         id="g138"
         style="fill:#ffffff;fill-opacity:1"><g
           id="g140"
           clip-path="url(#clipPath144-9)"
           style="fill:#ffffff;fill-opacity:1"><g
             id="g146"
             transform="translate(455.9742,939.7762)"
             style="fill:#ffffff;fill-opacity:1"><path
               d="m 0,0 c 0.596,-0.436 0.969,-1.026 1.124,-1.771 l -1.373,-0.281 c -0.078,0.453 -0.296,0.819 -0.655,1.097 -0.359,0.277 -0.795,0.417 -1.308,0.417 -0.505,0 -0.91,-0.122 -1.22,-0.366 -0.307,-0.244 -0.461,-0.558 -0.461,-0.943 0,-0.3 0.088,-0.535 0.263,-0.705 0.174,-0.172 0.452,-0.295 0.827,-0.373 l 1.862,-0.398 c 1.47,-0.325 2.205,-1.107 2.205,-2.348 0,-0.803 -0.302,-1.442 -0.905,-1.917 -0.603,-0.474 -1.399,-0.711 -2.391,-0.711 -0.95,0 -1.754,0.223 -2.414,0.673 -0.658,0.449 -1.038,1.075 -1.14,1.879 l 1.463,0.307 c 0.102,-0.538 0.349,-0.947 0.743,-1.224 0.394,-0.278 0.885,-0.417 1.476,-0.417 0.564,0 1.007,0.121 1.327,0.365 0.322,0.243 0.482,0.567 0.482,0.969 0,0.325 -0.093,0.573 -0.277,0.744 -0.184,0.171 -0.494,0.304 -0.928,0.398 l -1.874,0.384 c -1.446,0.334 -2.168,1.112 -2.168,2.335 0,0.762 0.288,1.375 0.865,1.842 0.577,0.466 1.342,0.698 2.291,0.698 C -1.323,0.654 -0.594,0.437 0,0"
               style="fill:#ffffff;fill-opacity:1;fill-rule:nonzero;stroke:none"
               id="path148"
               inkscape:connector-curvature="0" /></g></g></g><path
         d="m 519.10586,948.49989 h 1.37299 v -8.596 h -1.37299 z"
         style="fill:#ffffff;fill-opacity:1;fill-rule:nonzero;stroke:none;stroke-width:0.99999994"
         id="path150"
         inkscape:connector-curvature="0" /><g
         id="g152"
         transform="translate(528.63606,939.90299)"
         style="fill:#ffffff;fill-opacity:1"><path
           d="m 0,0 h -6.068 v 8.596 h 1.374 V 1.245 H 0 Z"
           style="fill:#ffffff;fill-opacity:1;fill-rule:nonzero;stroke:none"
           id="path154"
           inkscape:connector-curvature="0" /></g></g></g></svg>