<?xml version="1.0" encoding="UTF-8" standalone="no"?>
<svg width="103px" height="28px" viewBox="0 0 103 28" version="1.1" xmlns="http://www.w3.org/2000/svg" xmlns:xlink="http://www.w3.org/1999/xlink">
    <!-- Generator: Sketch 3.6.1 (26313) - http://www.bohemiancoding.com/sketch -->
    <title>Fill 1</title>
    <desc>Created with Sketch.</desc>
    <defs></defs>
    <g id="Page-1" stroke="none" stroke-width="1" fill="none" fill-rule="evenodd">
        <g id="logo" fill="#FFFFFF">
            <g id="Mobile">
                <path d="M51.2612477,8.96901115 L48.8238876,8.96901115 C48.4852028,8.96901115 48.2821297,9.10943543 48.1918137,9.46071039 L46.5385915,15.8544432 L44.6257109,9.46071039 C44.5360834,9.1353632 44.3127029,8.97236819 44.0003143,8.9699397 L43.999626,8.96901115 L42.23344,8.96901115 L42.2327516,8.9699397 C41.9203631,8.97236819 41.6969826,9.1353632 41.607355,9.46071039 L39.6944744,15.8544432 L38.0412522,9.46071039 C37.9509363,9.10943543 37.7478631,8.96901115 37.4091783,8.96901115 L34.9718182,8.96901115 C34.565603,8.96901115 34.38504,9.22664612 34.4978661,9.62456251 L37.7480008,20.1866678 C37.8383167,20.5144434 38.0865479,20.6782956 38.4025848,20.6782956 L40.5693413,20.6782956 C40.8851717,20.6782956 41.1334028,20.5144434 41.2237188,20.1867392 L43.1164985,14.0351418 L45.0093471,20.1867392 C45.0996631,20.5144434 45.3478942,20.6782956 45.6637247,20.6782956 L47.8304811,20.6782956 C48.1465181,20.6782956 48.3947492,20.5144434 48.4850652,20.1866678 L51.7352687,9.62456251 C51.8480259,9.22664612 51.6674629,8.96901115 51.2612477,8.96901115 L51.2612477,8.96901115 Z M57.8123198,17.7070294 C56.318596,17.7070294 55.1077292,16.4141404 55.1077292,14.8193321 C55.1077292,13.2245237 56.318596,11.9316347 57.8123198,11.9316347 C59.3059747,11.9316347 60.5169104,13.2245237 60.5169104,14.8193321 C60.5169104,16.4141404 59.3059747,17.7070294 57.8123198,17.7070294 L57.8123198,17.7070294 Z M63.3360481,8.96879687 L61.0806278,8.96879687 C60.7198459,8.96879687 60.5169104,9.179219 60.5169104,9.55377897 L60.5169104,10.0748344 C59.5920669,9.18000469 58.4017827,8.64123547 57.1028027,8.64123547 C54.1587234,8.64123547 51.7720972,11.4072937 51.7720972,14.8193321 C51.7720972,18.2313705 54.1587234,20.9973572 57.1028027,20.9973572 C58.4017827,20.9973572 59.5920669,20.4586594 60.5169104,19.5637583 L60.5169104,20.0848852 C60.5169104,20.459088 60.7198459,20.6698672 61.0806278,20.6698672 L63.3360481,20.6698672 C63.6970365,20.6698672 63.899972,20.459088 63.899972,20.0848852 L63.899972,9.55377897 C63.899972,9.179219 63.6970365,8.96879687 63.3360481,8.96879687 L63.3360481,8.96879687 Z M102.967742,13.2545228 L102.967742,20.0929563 C102.967742,20.4674449 102.764669,20.6782956 102.403267,20.6782956 L100.146057,20.6782956 C99.7853442,20.6782956 99.582271,20.4674449 99.582271,20.0929563 L99.582271,13.5590849 C99.582271,12.3881208 98.9276181,11.8729223 98.0698921,11.8729223 C97.0545262,11.8729223 96.4219016,12.4582615 96.4219016,13.8402192 L96.4219016,20.0929563 C96.4219016,20.4674449 96.2188284,20.6782956 95.8581153,20.6782956 L93.6009053,20.6782956 C93.2401922,20.6782956 93.0364306,20.4674449 93.0364306,20.0929563 L93.0364306,9.5544218 C93.0364306,9.17964756 93.2401922,8.96901115 93.6009053,8.96901115 L95.8581153,8.96901115 C96.2188284,8.96901115 96.4219016,9.17964756 96.4219016,9.5544218 L96.4219016,10.038407 C96.9526454,9.22471761 97.913629,8.64123547 99.3564812,8.64123547 C101.455363,8.64123547 102.967742,10.3271124 102.967742,13.2545228 L102.967742,13.2545228 Z M88.5137499,13.5590849 C88.1647394,12.2264114 87.1693366,11.7557116 86.1739338,11.7557116 C84.9052426,11.7557116 84.0268651,12.3912635 83.6785429,13.5590849 L88.5137499,13.5590849 L88.5137499,13.5590849 Z M91.8840764,14.8235462 C91.8840764,15.1281083 91.8613597,15.4091711 91.8393314,15.6903054 C91.7938981,16.0647225 91.5681083,16.2286461 91.2294235,16.2286461 L83.6923106,16.2286461 C84.1025873,17.620032 85.1558143,18.1723723 86.332262,18.1723723 C86.9641982,18.1723723 87.5961344,17.938308 88.0022808,17.5870331 C88.2280707,17.3996102 88.4084272,17.2827567 88.7016786,17.2827567 L90.8687104,17.2827567 C91.2748568,17.2827567 91.5006467,17.5403202 91.3196017,17.9148087 C90.4398474,19.9522464 88.5887837,21.0060712 86.2868287,21.0060712 C82.5399563,21.0060712 80.1478231,18.3130823 80.1478231,14.8235462 C80.1478231,11.3342959 82.6301346,8.64123547 86.1966504,8.64123547 C89.4919431,8.64123547 91.8840764,11.287583 91.8840764,14.8235462 L91.8840764,14.8235462 Z M78.884639,8.78130261 C79.2680687,8.7111619 79.4711419,8.96872545 79.4711419,9.34349969 L79.4711419,12.1067008 C79.4711419,12.4814751 79.313502,12.6688265 79.0202506,12.6688265 C77.7556898,12.622185 76.5372507,13.2777364 76.5372507,15.1513219 L76.5372507,20.0926706 C76.5372507,20.4674449 76.3341775,20.6780099 75.9727761,20.6780099 L73.7162544,20.6780099 C73.3548529,20.6780099 73.1517798,20.4674449 73.1517798,20.0926706 L73.1517798,9.55406467 C73.1517798,9.17964756 73.3548529,8.96872545 73.7162544,8.96872545 L75.9727761,8.96872545 C76.3341775,8.96872545 76.5372507,9.17964756 76.5372507,9.55406467 L76.5372507,10.8200259 C76.8738703,9.6442762 77.763262,8.95601155 78.884639,8.78165975 L78.884639,8.78130261 L78.884639,8.78130261 Z M71.0990196,8.78130261 C71.4824493,8.7111619 71.6855225,8.96872545 71.6855225,9.34349969 L71.6855225,12.1067008 C71.6855225,12.4814751 71.5278827,12.6688265 71.2346312,12.6688265 C69.9700704,12.622185 68.7514936,13.2777364 68.7514936,15.1513219 L68.7514936,20.0926706 C68.7514936,20.4674449 68.5484204,20.6780099 68.1872255,20.6780099 L65.9303596,20.6780099 C65.5691647,20.6780099 65.3660227,20.4674449 65.3660227,20.0926706 L65.3660227,9.55406467 C65.3660227,9.17964756 65.5691647,8.96872545 65.9303596,8.96872545 L68.1872255,8.96872545 C68.5484204,8.96872545 68.7514936,9.17964756 68.7514936,9.55406467 L68.7514936,10.8200259 C69.0882509,9.6442762 69.9776426,8.95601155 71.0990196,8.78165975 L71.0990196,8.78130261 L71.0990196,8.78130261 Z M21.1089412,17.9139516 C21.1089412,19.4521902 19.9070922,20.6991521 18.4245891,20.6991521 C18.1135085,20.6991521 17.8613536,20.4375172 17.8613536,20.1147414 L17.8613536,7.88525861 C17.8613536,7.56248278 18.1135085,7.30084793 18.4245891,7.30084793 L20.5457057,7.30084793 C20.8567863,7.30084793 21.1089412,7.56248278 21.1089412,7.88525861 L21.1089412,17.9139516 L21.1089412,17.9139516 Z M15.1331514,20.6991521 L13.0120348,20.6991521 C12.701023,20.6991521 12.4488681,20.4375172 12.4488681,20.1147414 L12.4488681,11.2348704 C12.4488681,10.9120945 12.701023,10.6504597 13.0120348,10.6504597 L15.1331514,10.6504597 C15.444232,10.6504597 15.6963869,10.9120945 15.6963869,11.2348704 L15.6963869,20.1147414 C15.6963869,20.4375172 15.444232,20.6991521 15.1331514,20.6991521 L15.1331514,20.6991521 Z M9.72066589,20.6991521 L7.59954927,20.6991521 C7.28846869,20.6991521 7.03631375,20.4375172 7.03631375,20.1147414 L7.03631375,9.57006418 C7.03631375,9.24728835 7.28846869,8.9856535 7.59954927,8.9856535 L9.72066589,8.9856535 C10.0316776,8.9856535 10.2838326,9.24728835 10.2838326,9.57006418 L10.2838326,20.1147414 C10.2838326,20.4375172 10.0316776,20.6991521 9.72066589,20.6991521 L9.72066589,20.6991521 Z M17.8613536,0 L10.2838326,0 C4.60425422,0 0,4.77735375 0,10.6704591 L0,27.4155893 C0,27.7383652 0.252154941,28 0.563235524,28 L17.8613536,28 C23.5410008,28 28.1451862,23.2226462 28.1451862,17.3294695 L28.1451862,10.6704591 C28.1451862,4.77735375 23.5410008,0 17.8613536,0 L17.8613536,0 Z" id="Fill-1"></path>
            </g>
        </g>
    </g>
</svg>